<mxfile host="app.diagrams.net" agent="Mozilla/5.0 (Windows NT 10.0; Win64; x64; rv:130.0) Gecko/20100101 Firefox/130.0" version="24.7.13">
  <diagram name="PÃ¡gina-1" id="Ypu8OsYglnfb_UtlTAKa">
    <mxGraphModel grid="1" page="1" gridSize="10" guides="1" tooltips="1" connect="1" arrows="1" fold="1" pageScale="1" pageWidth="827" pageHeight="1169" math="0" shadow="0">
      <root>
        <mxCell id="0" />
        <mxCell id="1" parent="0" />
        <mxCell id="TO_tf0VaPSmE9_xhrCwz-1" value="" style="whiteSpace=wrap;html=1;aspect=fixed;" vertex="1" parent="1">
          <mxGeometry x="80" y="40" width="720" height="720" as="geometry" />
        </mxCell>
        <mxCell id="TO_tf0VaPSmE9_xhrCwz-12" style="edgeStyle=orthogonalEdgeStyle;rounded=0;orthogonalLoop=1;jettySize=auto;html=1;exitX=0.5;exitY=0.5;exitDx=0;exitDy=0;exitPerimeter=0;entryX=0;entryY=0.5;entryDx=0;entryDy=0;" edge="1" parent="1" source="TO_tf0VaPSmE9_xhrCwz-2" target="TO_tf0VaPSmE9_xhrCwz-3">
          <mxGeometry relative="1" as="geometry" />
        </mxCell>
        <mxCell id="TO_tf0VaPSmE9_xhrCwz-2" value="Sistema" style="shape=umlActor;verticalLabelPosition=bottom;verticalAlign=top;html=1;outlineConnect=0;" vertex="1" parent="1">
          <mxGeometry x="30" y="230" width="30" height="60" as="geometry" />
        </mxCell>
        <mxCell id="TO_tf0VaPSmE9_xhrCwz-13" style="edgeStyle=orthogonalEdgeStyle;rounded=0;orthogonalLoop=1;jettySize=auto;html=1;exitX=1;exitY=0.5;exitDx=0;exitDy=0;entryX=0;entryY=0.5;entryDx=0;entryDy=0;" edge="1" parent="1" source="TO_tf0VaPSmE9_xhrCwz-3" target="TO_tf0VaPSmE9_xhrCwz-4">
          <mxGeometry relative="1" as="geometry">
            <Array as="points">
              <mxPoint x="190" y="260" />
              <mxPoint x="190" y="260" />
            </Array>
          </mxGeometry>
        </mxCell>
        <mxCell id="TO_tf0VaPSmE9_xhrCwz-3" value="&lt;div&gt;Monitorear&lt;/div&gt;&lt;div&gt;estado&lt;/div&gt;&lt;div&gt;modulo&lt;br&gt;&lt;/div&gt;" style="ellipse;whiteSpace=wrap;html=1;" vertex="1" parent="1">
          <mxGeometry x="90" y="230" width="90" height="60" as="geometry" />
        </mxCell>
        <mxCell id="TO_tf0VaPSmE9_xhrCwz-14" style="edgeStyle=orthogonalEdgeStyle;rounded=0;orthogonalLoop=1;jettySize=auto;html=1;exitX=1;exitY=0.5;exitDx=0;exitDy=0;entryX=0;entryY=0.5;entryDx=0;entryDy=0;" edge="1" parent="1" source="TO_tf0VaPSmE9_xhrCwz-4" target="TO_tf0VaPSmE9_xhrCwz-5">
          <mxGeometry relative="1" as="geometry">
            <Array as="points">
              <mxPoint x="310" y="260" />
              <mxPoint x="310" y="260" />
            </Array>
          </mxGeometry>
        </mxCell>
        <mxCell id="TO_tf0VaPSmE9_xhrCwz-4" value="&lt;div&gt;detectar&lt;/div&gt;&lt;div&gt;emergencia&lt;br&gt;&lt;/div&gt;" style="ellipse;whiteSpace=wrap;html=1;" vertex="1" parent="1">
          <mxGeometry x="210" y="230" width="90" height="60" as="geometry" />
        </mxCell>
        <mxCell id="TO_tf0VaPSmE9_xhrCwz-15" style="edgeStyle=orthogonalEdgeStyle;rounded=0;orthogonalLoop=1;jettySize=auto;html=1;exitX=1;exitY=0.5;exitDx=0;exitDy=0;entryX=0;entryY=0.5;entryDx=0;entryDy=0;" edge="1" parent="1" source="TO_tf0VaPSmE9_xhrCwz-5" target="TO_tf0VaPSmE9_xhrCwz-6">
          <mxGeometry relative="1" as="geometry">
            <Array as="points">
              <mxPoint x="430" y="260" />
              <mxPoint x="430" y="260" />
            </Array>
          </mxGeometry>
        </mxCell>
        <mxCell id="TO_tf0VaPSmE9_xhrCwz-5" value="&lt;div&gt;detener&lt;/div&gt;&lt;div&gt;funcionamiento&lt;/div&gt;&lt;div&gt;modulo&lt;br&gt;&lt;/div&gt;" style="ellipse;whiteSpace=wrap;html=1;" vertex="1" parent="1">
          <mxGeometry x="323.5" y="230" width="90" height="60" as="geometry" />
        </mxCell>
        <mxCell id="TO_tf0VaPSmE9_xhrCwz-6" value="&lt;div&gt;Notificar&lt;/div&gt;&lt;div&gt;apagado&lt;br&gt;&lt;/div&gt;" style="ellipse;whiteSpace=wrap;html=1;" vertex="1" parent="1">
          <mxGeometry x="440" y="230" width="90" height="60" as="geometry" />
        </mxCell>
      </root>
    </mxGraphModel>
  </diagram>
</mxfile>
